<?xml version="1.0" standalone="no"?>
<!DOCTYPE svg PUBLIC "-//W3C//DTD SVG 20010904//EN"
 "http://www.w3.org/TR/2001/REC-SVG-20010904/DTD/svg10.dtd">
<svg version="1.0" xmlns="http://www.w3.org/2000/svg"
 width="1448.000000pt" height="1448.000000pt" viewBox="0 0 1448.000000 1448.000000"
 preserveAspectRatio="xMidYMid meet">
<metadata>
Created by potrace 1.14, written by Peter Selinger 2001-2017
</metadata>
<g transform="translate(0.000000,1448.000000) scale(0.100000,-0.100000)"
fill="#000000" stroke="none">
<path d="M0 7235 l0 -4835 830 0 c784 0 830 1 831 18 0 9 1 1090 1 2402 l1
2386 36 -2 c20 0 41 -2 46 -4 6 -1 12 -1 15 0 14 7 2927 5 2941 -1 9 -5 20 -5
24 -1 3 4 33 8 66 8 32 1 63 2 67 3 5 0 8 374 8 829 l0 829 -1585 -1 c-872 -1
-1593 0 -1602 2 -15 3 -16 73 -15 770 l1 767 2370 2 c1304 1 2385 2 2403 3
l32 0 0 830 0 830 -3235 0 -3235 0 0 -4835z"/>
<path d="M8011 7235 l0 -4835 829 0 c457 0 830 3 831 8 1 4 2 722 3 1595 1
1188 4 1590 13 1595 13 8 1505 8 1519 -1 6 -3 9 -53 9 -111 -1 -69 2 -106 9
-106 8 0 8 -3 1 -8 -14 -10 -14 -872 0 -872 6 0 6 -3 0 -8 -7 -4 -11 -91 -10
-249 0 -133 2 -240 4 -238 2 3 12 0 22 -6 11 -5 19 -6 19 -2 0 4 18 8 40 8 22
0 40 -3 40 -7 0 -3 8 -5 18 -3 9 2 17 4 17 5 0 1 12 3 28 4 15 1 27 -2 27 -7
0 -4 8 -4 18 0 14 7 96 9 112 3 13 -5 60 -5 60 0 0 3 29 5 65 5 36 0 65 -4 65
-8 0 -5 5 -5 12 -1 16 10 58 12 58 2 0 -4 10 -4 23 0 27 9 48 9 64 -1 6 -4 14
-3 17 1 3 5 18 7 33 5 35 -5 41 -5 76 0 15 2 30 0 33 -5 3 -4 11 -5 17 -1 16
10 38 10 58 1 9 -4 19 -4 23 -1 9 9 66 9 66 0 0 -5 5 -5 12 -1 16 10 58 12 58
3 0 -4 8 -6 18 -4 9 2 17 4 17 5 0 1 12 3 28 4 15 1 27 -2 27 -7 0 -4 8 -4 18
0 14 7 96 9 112 3 13 -5 60 -5 60 0 0 3 29 5 65 5 36 0 65 -4 65 -8 0 -5 5 -5
12 -1 16 10 58 12 58 3 0 -4 8 -5 19 -2 18 5 19 -16 19 -769 0 -425 1 -785 1
-800 l1 -28 830 0 830 0 0 830 0 830 -22 1 c-13 0 -372 0 -800 1 l-776 0 -4
34 c-2 19 1 39 6 44 6 6 6 10 0 10 -8 0 -9 61 -1 163 1 20 0 37 -3 37 -8 0 -4
126 4 139 4 6 4 11 -1 11 -10 0 -8 103 1 119 4 6 4 11 -1 11 -11 0 -9 142 2
160 5 8 5 15 -1 17 -11 4 -10 145 0 162 4 6 4 11 -1 11 -10 0 -8 103 1 119 4
6 3 11 -1 11 -8 0 -8 66 0 163 1 20 0 37 -3 37 -8 0 -4 126 4 139 4 6 4 11 -1
11 -10 0 -8 103 1 119 4 6 3 11 -2 11 -6 0 -9 17 -8 37 l1 37 -143 0 c-78 1
-142 -3 -142 -7 0 -5 -6 -5 -12 0 -17 10 -308 10 -308 0 0 -5 -6 -5 -12 0 -17
10 -308 10 -308 0 0 -5 -6 -5 -12 0 -18 10 -308 10 -308 -1 0 -5 -6 -4 -12 1
-15 11 -158 11 -175 0 -7 -5 -13 -4 -13 0 0 5 -34 8 -75 7 -47 0 -75 3 -76 10
-3 28 -4 3112 -2 3121 3 8 253 11 791 10 433 0 792 1 799 3 6 2 10 14 8 28 -1
13 1 27 6 29 4 3 4 18 -1 34 -5 19 -4 33 3 40 6 6 7 11 1 11 -8 0 -9 61 -1
163 1 20 0 37 -3 37 -8 0 -4 126 4 139 4 6 3 11 -1 11 -8 0 -8 33 0 133 1 20
0 37 -3 37 -8 0 -4 126 4 139 4 6 4 11 -1 11 -10 0 -8 103 1 119 4 6 4 11 -1
11 -11 0 -9 142 2 160 5 8 5 15 -1 17 -11 4 -10 145 0 162 4 6 4 11 -1 11 -10
0 -8 103 1 119 4 6 4 11 -1 11 -10 0 -9 112 1 129 4 6 3 11 -2 11 -6 0 -8 9
-5 19 5 19 23 20 776 20 425 0 784 0 800 1 l27 0 0 830 0 830 -831 -2 -832 -3
0 -797 1 -798 -22 -1 c-11 0 -372 -1 -801 -2 l-780 -2 0 -422 c0 -276 3 -423
10 -423 6 0 6 -3 0 -8 -7 -4 -11 -64 -11 -157 0 -93 4 -153 11 -157 7 -5 7 -8
0 -8 -7 0 -10 -69 -10 -202 1 -112 0 -207 -2 -213 -2 -7 -261 -9 -756 -8 -413
1 -759 2 -768 2 -13 1 -15 160 -14 1589 0 873 -1 1593 -3 1600 -3 9 -179 12
-833 12 l-828 0 0 -4835z"/>
</g>
</svg>
